<svg width="28" height="28" viewBox="0 0 28 28" fill="none" xmlns="http://www.w3.org/2000/svg">
<path d="M9.99991 10V6.26693C9.99991 4.77345 9.99991 4.02616 10.2906 3.45573C10.5462 2.95396 10.9539 2.54631 11.4556 2.29065C12.026 2 12.7733 2 14.2668 2H21.7334C23.2268 2 23.9732 2 24.5436 2.29065C25.0453 2.54631 25.4537 2.95396 25.7094 3.45573C26 4.02616 26 4.7729 26 6.26637V13.7331C26 15.2265 26 15.9733 25.7094 16.5437C25.4537 17.0455 25.0449 17.454 24.5432 17.7096C23.9733 18 23.2278 18 21.7372 18H17.9998M9.99991 10H6.26688C4.77342 10 4.02614 10 3.45571 10.2906C2.95395 10.5463 2.54631 10.954 2.29065 11.4557C2 12.0262 2 12.7735 2 14.2669V21.7336C2 23.2271 2 23.9734 2.29065 24.5438C2.54631 25.0456 2.95395 25.454 3.45571 25.7096C4.02558 26 4.77196 26 6.26249 26H13.7379C15.2285 26 15.9738 26 16.5437 25.7096C17.0454 25.454 17.4538 25.0452 17.7094 24.5435C17.9998 23.9736 17.9998 23.228 17.9998 21.7375V18M9.99991 10H13.7335C15.2269 10 15.9732 10 16.5437 10.2906C17.0454 10.5463 17.4538 10.954 17.7094 11.4557C17.9998 12.0256 17.9998 12.772 17.9998 14.2626L17.9998 18" stroke="black" stroke-width="3" stroke-linecap="round" stroke-linejoin="round"/>
</svg>
